<?xml version="1.0" standalone="no"?>
<!DOCTYPE svg PUBLIC "-//W3C//DTD SVG 20010904//EN"
 "http://www.w3.org/TR/2001/REC-SVG-20010904/DTD/svg10.dtd">
<svg version="1.0" xmlns="http://www.w3.org/2000/svg"
 width="736.000000pt" height="736.000000pt" viewBox="0 0 736.000000 736.000000"
 preserveAspectRatio="xMidYMid meet">
<metadata>
Created by potrace 1.14, written by Peter Selinger 2001-2017
</metadata>
<g transform="translate(0.000000,736.000000) scale(0.100000,-0.100000)"
fill="#000000" stroke="none">
<path d="M3615 7141 c-46 -35 -1354 -986 -2972 -2160 -353 -256 -642 -472
-643 -480 0 -12 54 -181 286 -894 35 -108 93 -287 129 -397 36 -110 94 -290
130 -400 36 -110 94 -290 130 -400 36 -110 94 -290 130 -400 36 -110 94 -290
130 -400 36 -110 94 -289 129 -398 36 -108 90 -276 121 -372 135 -417 197
-607 207 -632 l10 -28 2278 0 c2160 0 2278 1 2285 18 6 16 61 183 200 612 36
110 94 290 130 400 36 110 94 290 130 400 36 110 94 290 130 400 36 110 94
290 130 400 36 110 94 290 130 400 36 110 94 289 129 397 305 938 416 1283
416 1295 -1 7 -76 67 -168 134 -174 126 -1167 848 -2640 1917 -474 345 -868
627 -875 626 -6 0 -34 -17 -62 -38z m293 -1129 c119 -87 705 -513 1302 -947
1278 -928 1190 -863 1190 -877 0 -7 -27 -93 -59 -193 -33 -99 -114 -349 -181
-555 -67 -206 -150 -463 -185 -570 -72 -221 -167 -513 -261 -802 -134 -412
-198 -609 -259 -798 -35 -107 -70 -214 -77 -237 l-13 -43 -1685 0 -1685 0 -13
43 c-7 23 -42 132 -78 242 -36 110 -94 289 -130 398 -35 108 -93 288 -130 400
-36 111 -95 292 -130 402 -36 110 -94 288 -129 395 -35 107 -118 364 -185 570
-67 206 -149 457 -182 558 -33 101 -58 189 -55 196 3 6 463 345 1023 751 560
407 1166 849 1348 982 182 133 337 242 344 242 7 1 110 -70 230 -157z"/>
<path d="M2877 4406 c-395 -288 -723 -528 -728 -533 -12 -12 -9 -20 116 -403
35 -107 118 -364 185 -570 67 -206 149 -459 183 -563 l61 -187 906 0 906 0 32
99 c17 54 60 189 96 300 259 794 426 1309 426 1314 0 3 -80 63 -177 134 -431
314 -1284 933 -1286 932 -1 0 -325 -236 -720 -523z"/>
</g>
</svg>
